<svg width="124" height="21" viewBox="0 0 124 21" fill="none" xmlns="http://www.w3.org/2000/svg">
<path d="M49.0675 12.1227C49.0675 11.8723 49.0281 11.6476 48.9493 11.4486C48.8771 11.2431 48.7391 11.0569 48.5356 10.89C48.332 10.7167 48.0463 10.5465 47.6786 10.3796C47.3108 10.2127 46.8347 10.0394 46.2503 9.8596C45.6001 9.65416 44.9829 9.42304 44.3984 9.16624C43.8205 8.90944 43.3083 8.61091 42.8617 8.27065C42.4217 7.92397 42.0737 7.52272 41.8176 7.0669C41.568 6.61108 41.4433 6.08143 41.4433 5.47795C41.4433 4.89373 41.5746 4.36408 41.8373 3.889C42.1 3.4075 42.4677 2.99662 42.9405 2.65636C43.4134 2.30968 43.9715 2.04325 44.6151 1.85707C45.2652 1.67089 45.9777 1.5778 46.7526 1.5778C47.8099 1.5778 48.7326 1.76398 49.5206 2.13634C50.3086 2.5087 50.9194 3.01909 51.3528 3.66751C51.7928 4.31593 52.0128 5.05744 52.0128 5.89204H49.0773C49.0773 5.48116 48.9887 5.12164 48.8114 4.81348C48.6406 4.4989 48.378 4.25173 48.0233 4.07197C47.6753 3.89221 47.2353 3.80233 46.7034 3.80233C46.1912 3.80233 45.7643 3.87937 45.4228 4.03345C45.0814 4.18111 44.8252 4.38334 44.6545 4.64014C44.4838 4.89052 44.3984 5.173 44.3984 5.48758C44.3984 5.72512 44.4575 5.94019 44.5757 6.13279C44.7005 6.32539 44.8843 6.50515 45.1273 6.67207C45.3703 6.83899 45.6691 6.99628 46.0237 7.14394C46.3783 7.2916 46.7888 7.43605 47.255 7.57729C48.0365 7.80841 48.7227 8.06842 49.3138 8.35732C49.9113 8.64622 50.4104 8.97043 50.811 9.32995C51.2116 9.68947 51.5137 10.0971 51.7173 10.553C51.9208 11.0088 52.0226 11.5256 52.0226 12.1034C52.0226 12.7133 51.9011 13.259 51.6582 13.7405C51.4152 14.222 51.0638 14.6297 50.6042 14.9635C50.1445 15.2973 49.5961 15.5509 48.9591 15.7243C48.3221 15.8976 47.6096 15.9843 46.8216 15.9843C46.1124 15.9843 45.413 15.8944 44.7235 15.7146C44.0339 15.5285 43.4068 15.2492 42.842 14.8768C42.2838 14.5045 41.8373 14.0294 41.5024 13.4516C41.1675 12.8738 41 12.1901 41 11.4004H43.965C43.965 11.837 44.0339 12.2061 44.1718 12.5079C44.3097 12.8096 44.5035 13.0536 44.753 13.2397C45.0091 13.4259 45.3112 13.5607 45.6592 13.6442C46.0139 13.7277 46.4013 13.7694 46.8216 13.7694C47.3338 13.7694 47.7541 13.6988 48.0825 13.5575C48.4174 13.4163 48.6636 13.2205 48.8212 12.9701C48.9854 12.7197 49.0675 12.4372 49.0675 12.1227Z" fill="#8C8A97"/>
<path d="M57.0168 14.6168L59.8439 5.37202H62.8876L58.6027 17.3614C58.5108 17.6246 58.386 17.9071 58.2284 18.2088C58.0773 18.5106 57.8705 18.7962 57.6078 19.0659C57.3517 19.3419 57.0266 19.5667 56.6326 19.74C56.2452 19.9133 55.7691 20 55.2043 20C54.9351 20 54.7151 19.984 54.5443 19.9519C54.3736 19.9198 54.17 19.8748 53.9336 19.817V17.7851C54.0058 17.7851 54.0814 17.7851 54.1602 17.7851C54.239 17.7915 54.3145 17.7947 54.3867 17.7947C54.761 17.7947 55.0664 17.753 55.3028 17.6695C55.5392 17.5861 55.7297 17.4577 55.8741 17.2843C56.0186 17.1174 56.1335 16.8991 56.2189 16.6295L57.0168 14.6168ZM55.8347 5.37202L58.1496 12.9219L58.5534 15.8591L56.6228 16.0613L52.791 5.37202H55.8347Z" fill="#8C8A97"/>
<path d="M66.7982 7.59655V15.7917H63.9613V5.37202H66.6209L66.7982 7.59655ZM66.3845 10.2159H65.6162C65.6162 9.44551 65.718 8.75215 65.9216 8.13583C66.1251 7.51309 66.4108 6.98344 66.7785 6.54688C67.1463 6.1039 67.583 5.76685 68.0887 5.53573C68.6009 5.29819 69.1722 5.17942 69.8026 5.17942C70.3017 5.17942 70.7581 5.25004 71.1718 5.39128C71.5856 5.53252 71.9402 5.75722 72.2357 6.06538C72.5378 6.37354 72.7676 6.78121 72.9252 7.28839C73.0894 7.79557 73.1715 8.4151 73.1715 9.14698V15.7917H70.3148V9.13735C70.3148 8.67511 70.2492 8.31559 70.1178 8.05879C69.9865 7.80199 69.7928 7.62223 69.5367 7.51951C69.2871 7.41037 68.9785 7.3558 68.6107 7.3558C68.2298 7.3558 67.8982 7.42963 67.6158 7.57729C67.34 7.72495 67.1102 7.93039 66.9263 8.19361C66.749 8.45041 66.6144 8.75215 66.5224 9.09883C66.4305 9.44551 66.3845 9.81787 66.3845 10.2159Z" fill="#8C8A97"/>
<path d="M79.7318 13.8175C80.0799 13.8175 80.3885 13.7533 80.6578 13.6249C80.927 13.4901 81.1372 13.3039 81.2882 13.0664C81.4458 12.8224 81.5279 12.5367 81.5345 12.2093H84.2039C84.1974 12.9412 83.9971 13.5928 83.6031 14.1642C83.209 14.7292 82.6804 15.1754 82.0171 15.5028C81.3539 15.8238 80.6118 15.9843 79.791 15.9843C78.9635 15.9843 78.2412 15.8495 77.6239 15.5798C77.0131 15.3102 76.5042 14.9378 76.097 14.4627C75.6899 13.9812 75.3845 13.4227 75.181 12.7871C74.9774 12.1451 74.8756 11.4582 74.8756 10.7263V10.447C74.8756 9.70873 74.9774 9.02179 75.181 8.38621C75.3845 7.74421 75.6899 7.18567 76.097 6.71059C76.5042 6.22909 77.0131 5.85352 77.6239 5.58388C78.2346 5.31424 78.9504 5.17942 79.7713 5.17942C80.6447 5.17942 81.4097 5.34313 82.0664 5.67055C82.7297 5.99797 83.2484 6.46663 83.6228 7.07653C84.0036 7.68001 84.1974 8.39584 84.2039 9.22402H81.5345C81.5279 8.87734 81.4524 8.56276 81.3079 8.28028C81.17 7.9978 80.9664 7.7731 80.6972 7.60618C80.4345 7.43284 80.1094 7.34617 79.722 7.34617C79.3083 7.34617 78.9701 7.43284 78.7074 7.60618C78.4447 7.7731 78.2412 8.00422 78.0967 8.29954C77.9522 8.58844 77.8504 8.91907 77.7913 9.29143C77.7388 9.65737 77.7125 10.0426 77.7125 10.447V10.7263C77.7125 11.1308 77.7388 11.5192 77.7913 11.8915C77.8439 12.2639 77.9424 12.5945 78.0868 12.8834C78.2379 13.1723 78.4447 13.4002 78.7074 13.5672C78.9701 13.7341 79.3116 13.8175 79.7318 13.8175Z" fill="#8C8A97"/>
<path d="M88.6169 1V15.7917H85.78V1H88.6169ZM88.2131 10.2159H87.4349C87.4414 9.49045 87.5399 8.82277 87.7304 8.21287C87.9208 7.59655 88.1934 7.06369 88.548 6.61429C88.9026 6.15847 89.3262 5.80537 89.8187 5.55499C90.3178 5.30461 90.8694 5.17942 91.4735 5.17942C91.9989 5.17942 92.475 5.25325 92.9019 5.40091C93.3353 5.54215 93.7063 5.77327 94.015 6.09427C94.3302 6.40885 94.5731 6.82294 94.7439 7.33654C94.9146 7.85014 95 8.47288 95 9.20476V15.7917H92.1434V9.1855C92.1434 8.72326 92.0744 8.36053 91.9365 8.09731C91.8052 7.82767 91.6115 7.63828 91.3553 7.52914C91.1058 7.41358 90.7972 7.3558 90.4294 7.3558C90.0223 7.3558 89.6742 7.42963 89.3853 7.57729C89.1029 7.72495 88.8763 7.93039 88.7056 8.19361C88.5348 8.45041 88.4101 8.75215 88.3313 9.09883C88.2525 9.44551 88.2131 9.81787 88.2131 10.2159Z" fill="#8C8A97"/>
<path d="M8.67318 11.0654H11.5935C11.5349 12.0268 11.2712 12.8803 10.8024 13.6259C10.3401 14.3715 9.69221 14.9536 8.85875 15.3721C8.03181 15.7907 7.03556 16 5.87002 16C4.95843 16 4.14125 15.843 3.41848 15.5291C2.69572 15.2086 2.07713 14.7508 1.56273 14.1557C1.05485 13.5605 0.667418 12.8411 0.400451 11.9974C0.133484 11.1537 0 10.2086 0 9.1622V8.17135C0 7.12492 0.136739 6.17986 0.410218 5.33617C0.690208 4.48594 1.0874 3.76324 1.6018 3.16808C2.12271 2.57292 2.74455 2.11511 3.46732 1.79464C4.19008 1.47417 4.9975 1.31393 5.88956 1.31393C7.07463 1.31393 8.07413 1.52976 8.88805 1.96141C9.70849 2.39307 10.3434 2.98823 10.7926 3.74689C11.2484 4.50556 11.5219 5.36887 11.6131 6.33682H8.68294C8.65039 5.76128 8.53644 5.27404 8.3411 4.87508C8.14575 4.46959 7.84949 4.16547 7.45229 3.96272C7.06161 3.75343 6.5407 3.64879 5.88956 3.64879C5.4012 3.64879 4.97471 3.74035 4.61007 3.92348C4.24543 4.10661 3.93939 4.38456 3.69196 4.75736C3.44453 5.13015 3.25895 5.60105 3.13524 6.17005C3.01803 6.7325 2.95943 7.39307 2.95943 8.15173V9.1622C2.95943 9.90124 3.01478 10.552 3.12547 11.1145C3.23616 11.6704 3.40546 12.1413 3.63336 12.5271C3.86777 12.9065 4.16729 13.1942 4.53193 13.3905C4.90308 13.5801 5.34911 13.675 5.87002 13.675C6.48209 13.675 6.98673 13.5768 7.38392 13.3806C7.78112 13.1844 8.0839 12.8934 8.29226 12.5075C8.50714 12.1216 8.63411 11.6409 8.67318 11.0654Z" fill="#FBAB34"/>
<path d="M12.8926 10.6043V10.3983C12.8926 9.62001 13.0033 8.90386 13.2246 8.24984C13.446 7.58927 13.7683 7.017 14.1916 6.53303C14.6148 6.04905 15.1357 5.67299 15.7543 5.40484C16.3729 5.13015 17.0826 4.99281 17.8835 4.99281C18.6844 4.99281 19.3974 5.13015 20.0225 5.40484C20.6476 5.67299 21.1718 6.04905 21.595 6.53303C22.0248 7.017 22.3504 7.58927 22.5717 8.24984C22.7931 8.90386 22.9038 9.62001 22.9038 10.3983V10.6043C22.9038 11.3761 22.7931 12.0922 22.5717 12.7528C22.3504 13.4068 22.0248 13.9791 21.595 14.4696C21.1718 14.9536 20.6509 15.3296 20.0323 15.5978C19.4137 15.8659 18.704 16 17.9031 16C17.1022 16 16.3892 15.8659 15.7641 15.5978C15.1455 15.3296 14.6213 14.9536 14.1916 14.4696C13.7683 13.9791 13.446 13.4068 13.2246 12.7528C13.0033 12.0922 12.8926 11.3761 12.8926 10.6043ZM15.7055 10.3983V10.6043C15.7055 11.0491 15.7446 11.4644 15.8227 11.8502C15.9008 12.2361 16.0245 12.5762 16.1938 12.8705C16.3696 13.1583 16.5975 13.3839 16.8775 13.5474C17.1575 13.7109 17.4994 13.7927 17.9031 13.7927C18.2938 13.7927 18.6291 13.7109 18.9091 13.5474C19.1891 13.3839 19.4137 13.1583 19.583 12.8705C19.7523 12.5762 19.876 12.2361 19.9542 11.8502C20.0388 11.4644 20.0811 11.0491 20.0811 10.6043V10.3983C20.0811 9.96664 20.0388 9.56115 19.9542 9.18182C19.876 8.79594 19.7491 8.45585 19.5733 8.16154C19.404 7.86069 19.1793 7.62524 18.8993 7.4552C18.6193 7.28515 18.2807 7.20013 17.8835 7.20013C17.4864 7.20013 17.1478 7.28515 16.8678 7.4552C16.5943 7.62524 16.3696 7.86069 16.1938 8.16154C16.0245 8.45585 15.9008 8.79594 15.8227 9.18182C15.7446 9.56115 15.7055 9.96664 15.7055 10.3983Z" fill="#FBAB34"/>
<path d="M27.6018 5.18901V15.8038H24.7791V5.18901H27.6018ZM24.6033 2.4225C24.6033 2.01046 24.7466 1.67037 25.0331 1.40222C25.3196 1.13407 25.7037 1 26.1856 1C26.6609 1 27.0418 1.13407 27.3283 1.40222C27.6213 1.67037 27.7678 2.01046 27.7678 2.4225C27.7678 2.83453 27.6213 3.17462 27.3283 3.44277C27.0418 3.71092 26.6609 3.845 26.1856 3.845C25.7037 3.845 25.3196 3.71092 25.0331 3.44277C24.7466 3.17462 24.6033 2.83453 24.6033 2.4225Z" fill="#FBAB34"/>
<path d="M32.6807 7.4552V15.8038H29.8678V5.18901H32.5049L32.6807 7.4552ZM32.2705 10.1236H31.5086C31.5086 9.33878 31.6096 8.63244 31.8114 8.00458C32.0133 7.37018 32.2965 6.83061 32.6612 6.38587C33.0258 5.9346 33.4588 5.59124 33.9602 5.35579C34.4681 5.1138 35.0346 4.99281 35.6597 4.99281C36.1545 4.99281 36.6071 5.06475 37.0173 5.20863C37.4275 5.35252 37.7791 5.58143 38.0721 5.89536C38.3716 6.20929 38.5995 6.62459 38.7558 7.14127C38.9186 7.65795 39 8.28908 39 9.03466V15.8038H36.1675V9.02485C36.1675 8.55396 36.1024 8.1877 35.9722 7.9261C35.842 7.66449 35.6499 7.48136 35.3959 7.37672C35.1485 7.26553 34.8425 7.20994 34.4778 7.20994C34.1002 7.20994 33.7713 7.28515 33.4914 7.43558C33.2179 7.586 32.99 7.79529 32.8077 8.06344C32.6319 8.32505 32.4984 8.63244 32.4072 8.98561C32.3161 9.33878 32.2705 9.71812 32.2705 10.1236Z" fill="#FBAB34"/>
<path fill-rule="evenodd" clip-rule="evenodd" d="M119.782 4.21763C116.313 0.747972 110.687 0.74797 107.218 4.21764C103.748 7.68728 103.748 13.3127 107.218 16.7824C110.687 20.252 116.313 20.252 119.782 16.7824C123.252 13.3128 123.252 7.6877 119.783 4.218L119.782 4.21763ZM120.925 3.07538C125.025 7.17589 125.025 13.8241 120.925 17.9246C116.824 22.0251 110.176 22.0251 106.075 17.9246C101.975 13.8241 101.975 7.17587 106.075 3.07538C110.176 -1.02513 116.824 -1.02513 120.925 3.07538ZM112.413 8.20928C112.247 8.5797 112.154 8.99057 112.154 9.42309C112.154 11.0587 113.48 12.3846 115.115 12.3846C115.133 12.3846 115.15 12.3845 115.167 12.3842C115.22 12.3765 115.274 12.374 115.328 12.3771C116.865 12.2681 118.077 10.9873 118.077 9.42309C118.077 7.78732 116.752 6.46155 115.115 6.46155C113.944 6.46155 112.932 7.14134 112.451 8.12787C112.44 8.15579 112.427 8.18296 112.413 8.20928ZM110.564 8.93906C109.59 9.42183 108.923 10.4207 108.923 11.5769C108.923 13.2126 110.249 14.5385 111.885 14.5385C112.623 14.5385 113.297 14.2655 113.815 13.8127C111.921 13.2524 110.538 11.4992 110.538 9.42309C110.538 9.2596 110.547 9.09812 110.564 8.93906ZM115.784 13.9515C114.984 15.2652 113.545 16.1539 111.885 16.1539C109.357 16.1539 107.308 14.1047 107.308 11.5769C107.308 9.28306 108.997 7.40168 111.19 7.06759C111.991 5.7366 113.449 4.84617 115.115 4.84617C117.644 4.84617 119.692 6.89547 119.692 9.42309C119.692 11.7236 117.996 13.6278 115.784 13.9515Z" fill="#FBAB34"/>
</svg>
