<svg width="16" height="16" viewBox="0 0 16 16" fill="none" xmlns="http://www.w3.org/2000/svg">
<path fill-rule="evenodd" clip-rule="evenodd" d="M6.32228 2.00856C7.24882 1.08201 8.75103 1.08201 9.67757 2.00856C10.6041 2.9351 10.6041 4.43731 9.67757 5.36385C8.75103 6.29039 7.24882 6.29039 6.32228 5.36385C5.39573 4.43731 5.39573 2.9351 6.32228 2.00856ZM5.4072 1.09348C6.83912 -0.33845 9.16072 -0.33845 10.5926 1.09348C12.0246 2.5254 12.0246 4.847 10.5926 6.27893C9.16072 7.71086 6.83912 7.71086 5.4072 6.27893C3.97527 4.847 3.97527 2.5254 5.4072 1.09348ZM7.99995 8.65389C6.15981 8.65389 4.31784 9.09877 2.91377 9.91616C1.51553 10.7302 0.450928 11.9843 0.450928 13.6078V14.4705C0.450928 15.3041 1.12714 15.9803 1.96073 15.9803H14.0392C14.8728 15.9803 15.549 15.3041 15.549 14.4705V13.6078C15.549 11.9843 14.4844 10.7302 13.0861 9.91616C11.6821 9.09877 9.84008 8.65389 7.99995 8.65389ZM1.74505 13.6078C1.74505 12.6206 2.38523 11.7213 3.56487 11.0346C4.73869 10.3512 6.34769 9.94801 7.99995 9.94801C9.6522 9.94801 11.2612 10.3512 12.435 11.0346C13.6147 11.7213 14.2549 12.6206 14.2549 13.6078V14.4705C14.2549 14.5894 14.158 14.6862 14.0392 14.6862H1.96073C1.84186 14.6862 1.74505 14.5894 1.74505 14.4705V13.6078Z" fill="#E0DEEA"/>
</svg>
