<svg width="32" height="32" viewBox="0 0 32 32" fill="none" xmlns="http://www.w3.org/2000/svg">
<path d="M28.0051 12.665V8.66334C28.0051 6.82162 26.5121 5.32861 24.6704 5.32861H7.32984C5.48812 5.32861 3.99512 6.82162 3.99512 8.66334V13.3319" stroke="#FBAB34" stroke-width="2" stroke-linecap="round" stroke-linejoin="round"/>
<path d="M28.0051 19.3345V23.3361C28.0051 25.1779 26.5121 26.6709 24.6704 26.6709H14.6663" stroke="#FBAB34" stroke-width="2" stroke-linecap="round" stroke-linejoin="round"/>
<path d="M3.99507 26.6708V18.6675" stroke="#FBAB34" stroke-width="2" stroke-linecap="round" stroke-linejoin="round"/>
<path d="M6.74336 17.3335V18.6674" stroke="#FBAB34" stroke-width="2" stroke-linecap="round" stroke-linejoin="round"/>
<path d="M6.74336 26.6709V28.0048" stroke="#FBAB34" stroke-width="2" stroke-linecap="round" stroke-linejoin="round"/>
<path fill-rule="evenodd" clip-rule="evenodd" d="M3.99512 22.6694H8.66373C9.76876 22.6694 10.6646 23.5652 10.6646 24.6703V24.6703C10.6646 25.7753 9.76876 26.6711 8.66373 26.6711H3.99512V22.6694Z" stroke="#FBAB34" stroke-width="2" stroke-linecap="round" stroke-linejoin="round"/>
<path fill-rule="evenodd" clip-rule="evenodd" d="M3.99512 18.6675H8.19687C9.3019 18.6675 10.1977 19.5633 10.1977 20.6683V20.6683C10.1977 21.7733 9.3019 22.6691 8.19687 22.6691H3.99512V18.6675Z" stroke="#FBAB34" stroke-width="2" stroke-linecap="round" stroke-linejoin="round"/>
<path fill-rule="evenodd" clip-rule="evenodd" d="M24.6704 12.665H28.0051C28.7418 12.665 29.339 13.2622 29.339 13.9989V18.0006C29.339 18.7373 28.7418 19.3345 28.0051 19.3345H24.6704C22.8287 19.3345 21.3357 17.8415 21.3357 15.9998V15.9998C21.3357 14.158 22.8287 12.665 24.6704 12.665V12.665Z" stroke="#FBAB34" stroke-width="2" stroke-linecap="round" stroke-linejoin="round"/>
<path d="M10.6646 11.998H17.334" stroke="#FBAB34" stroke-width="2" stroke-linecap="round" stroke-linejoin="round"/>
</svg>
