<svg width="82" height="68" viewBox="0 0 82 68" fill="none" xmlns="http://www.w3.org/2000/svg">
<circle cx="58" cy="44" r="24" fill="#F7F7F7"/>
<circle cx="72" cy="8" r="8" fill="#F7F7F7"/>
<circle cx="12.5" cy="20.5" r="12.5" fill="#F7F7F7"/>
<circle cx="5.5" cy="41.5" r="5.5" fill="#F7F7F7"/>
<path d="M15.5 42.5L23.5 33.5L20 22L25 21L52.5 20.5L67 22L71 28.5V53L65 58.5H43.5L28.5 63L17.5 56L15.5 42.5Z" fill="#F4F3F8"/>
<path d="M37.3843 40.7518C38.2416 41.5691 38.2416 42.8944 37.3843 43.7117L34.397 46.5601L37.3843 49.4085C38.2416 50.2259 38.2416 51.5511 37.3843 52.3685C36.5271 53.1859 35.1372 53.1859 34.2799 52.3685L31.2926 49.5201L28.3053 52.3685C27.448 53.1859 26.0582 53.1859 25.2009 52.3685C24.3437 51.5511 24.3437 50.2259 25.2009 49.4085L28.1882 46.5601L25.2009 43.7117C24.3437 42.8944 24.3437 41.5691 25.2009 40.7518C26.0582 39.9344 27.448 39.9344 28.3053 40.7518L31.2926 43.6001L34.2799 40.7518C35.1372 39.9344 36.5271 39.9344 37.3843 40.7518Z" fill="#E0DEEA"/>
<path fill-rule="evenodd" clip-rule="evenodd" d="M61.2927 11.6823V18.936H62.0244C68.0865 18.936 73 23.6209 73 29.4011V50.7471C73 56.5077 68.066 61.2122 62.0244 61.2122H41.2217C38.3623 62.9776 34.9532 64.0027 31.2927 64.0027C21.1916 64.0027 13 56.1922 13 46.5609C13 41.5094 15.2533 36.9589 18.8537 33.7733V23.0935C18.8537 18.74 21.6814 14.8405 25.9509 13.3021L50.3992 4.50005C55.664 2.60943 61.2927 6.31354 61.2927 11.6823ZM27.5028 17.2179L51.9483 8.41685C54.3458 7.55636 56.9024 9.24295 56.9024 11.6823V18.936H26.9024C26.1109 18.936 25.3462 19.0448 24.6238 19.2476C25.3528 18.35 26.3385 17.6375 27.5028 17.2179ZM23.2439 30.8944C25.6729 29.7575 28.4047 29.119 31.2927 29.119C41.397 29.119 49.5854 36.9298 49.5854 46.5609C49.5854 50.4871 48.2245 54.1108 45.9278 57.0262H62.0244C65.6413 57.0262 68.6098 54.1958 68.6098 50.7471V29.4011C68.6098 25.9328 65.6618 23.122 62.0244 23.122H59.1987C59.1652 23.1235 59.1315 23.1242 59.0976 23.1242C59.0636 23.1242 59.0299 23.1235 58.9964 23.122H26.9024C24.8806 23.122 23.2439 24.6826 23.2439 26.6104V30.8944ZM39.3493 57.3651C42.8877 54.9619 45.1951 51.0178 45.1951 46.5609C45.1951 39.2412 38.9718 33.3051 31.2927 33.3051C23.6162 33.3051 17.3902 39.2415 17.3902 46.5609C17.3902 53.8803 23.6162 59.8167 31.2927 59.8167C34.2404 59.8167 36.9736 58.942 39.2226 57.4501C39.2637 57.4204 39.306 57.3921 39.3493 57.3651Z" fill="#E0DEEA"/>
</svg>
