<svg width="64" height="64" viewBox="0 0 64 64" fill="none" xmlns="http://www.w3.org/2000/svg">
<path fill-rule="evenodd" clip-rule="evenodd" d="M8 6.5C8.82843 6.5 9.5 7.17157 9.5 8V50.6667C9.5 52.7849 11.2151 54.5 13.3333 54.5H56C56.8284 54.5 57.5 55.1716 57.5 56C57.5 56.8284 56.8284 57.5 56 57.5H13.3333C9.55824 57.5 6.5 54.4418 6.5 50.6667V8C6.5 7.17157 7.17157 6.5 8 6.5Z" fill="#FBAB34"/>
<path fill-rule="evenodd" clip-rule="evenodd" d="M56.9602 14.8476C57.5967 15.378 57.6827 16.3238 57.1524 16.9602L44.891 31.6749C43.8665 32.9036 42.2322 33.4372 40.6798 33.0501L40.6786 33.0498L33.2602 31.1939C32.8265 31.0855 32.3677 31.2346 32.0803 31.579L19.819 46.2936C19.2887 46.93 18.3429 47.016 17.7064 46.4857C17.07 45.9554 16.984 45.0095 17.5143 44.3731L29.7756 29.6584C30.8003 28.4297 32.4376 27.8959 33.9878 28.2835L41.4056 30.1392C41.8423 30.248 42.299 30.0987 42.5864 29.7544L54.8476 15.0398C55.378 14.4033 56.3238 14.3173 56.9602 14.8476Z" fill="#FBAB34"/>
</svg>
