<svg width="40" height="40" viewBox="0 0 40 40" fill="none" xmlns="http://www.w3.org/2000/svg">
<path fill-rule="evenodd" clip-rule="evenodd" d="M30.4133 10.5613L33.085 15.0883C34.5024 17.4893 36.0873 20.1728 36.7664 21.3183C37.1253 21.9048 37.2957 22.5872 37.2546 23.2736C37.0222 27.492 33.6088 30.836 29.3861 30.9814C29.3578 30.9824 29.3295 30.9824 29.3012 30.9815C25.0767 30.8399 21.6601 27.4959 21.4269 23.2763C21.3828 22.5863 21.5514 21.8994 21.91 21.3084L28.2605 10.5606C28.4855 10.1798 28.8949 9.94631 29.3371 9.94645C29.7793 9.94659 30.1886 10.1804 30.4133 10.5613ZM29.336 13.6549L24.0488 22.6031C23.9543 22.7577 23.91 22.9378 23.922 23.1186L23.923 23.1335C24.0816 26.0485 26.4303 28.3622 29.3425 28.4813C32.2531 28.3596 34.5994 26.0467 34.7585 23.1333L34.759 23.1252C34.7698 22.9479 34.7256 22.7716 34.6323 22.6205L34.6207 22.6017C33.9429 21.4584 32.3525 18.7652 30.9322 16.3592L29.336 13.6549Z" fill="#FBAB34"/>
<path fill-rule="evenodd" clip-rule="evenodd" d="M21.4823 22.534C21.4823 21.8436 22.042 21.284 22.7323 21.284H35.9426C36.633 21.284 37.1926 21.8436 37.1926 22.534C37.1926 23.2243 36.633 23.784 35.9426 23.784H22.7323C22.042 23.784 21.4823 23.2243 21.4823 22.534Z" fill="#FBAB34"/>
<path fill-rule="evenodd" clip-rule="evenodd" d="M10.6683 15.4159C11.1106 15.416 11.5199 15.6498 11.7447 16.0307L18.0937 26.7916C18.45 27.3802 18.6174 28.0639 18.5731 28.7506C18.3416 32.9682 14.9282 36.3121 10.7058 36.4557C10.6778 36.4567 10.6498 36.4567 10.6218 36.4558C6.39562 36.3152 2.97697 32.9696 2.74521 28.7474L2.74552 28.7528C2.70445 28.059 2.87884 27.3696 3.24457 26.779L9.59177 16.0303C9.81666 15.6495 10.2261 15.4158 10.6683 15.4159ZM10.6677 19.125L5.38981 28.0628L5.3726 28.0911C5.27639 28.2446 5.23044 28.4242 5.24115 28.6051L5.24146 28.6104C5.40145 31.525 7.75085 33.8374 10.6628 33.9556C13.5734 33.8353 15.9199 31.5218 16.0771 28.6084L16.078 28.5919C16.09 28.4139 16.0466 28.2365 15.9538 28.0841L15.9445 28.0689L10.6677 19.125Z" fill="#FBAB34"/>
<path fill-rule="evenodd" clip-rule="evenodd" d="M2.80736 28.0034C2.80736 27.3131 3.367 26.7534 4.05736 26.7534H17.2677C17.958 26.7534 18.5177 27.3131 18.5177 28.0034C18.5177 28.6938 17.958 29.2534 17.2677 29.2534H4.05736C3.367 29.2534 2.80736 28.6938 2.80736 28.0034Z" fill="#FBAB34"/>
<path fill-rule="evenodd" clip-rule="evenodd" d="M30.5363 10.8451C30.7303 11.5076 30.3506 12.202 29.6881 12.3961L11.0147 17.8655C10.3522 18.0596 9.65776 17.6798 9.46371 17.0173C9.26966 16.3548 9.64942 15.6604 10.3119 15.4663L28.9853 9.99685C29.6478 9.8028 30.3422 10.1826 30.5363 10.8451Z" fill="#FBAB34"/>
<path fill-rule="evenodd" clip-rule="evenodd" d="M18.6666 6.74512C19.357 6.74512 19.9166 7.30476 19.9166 7.99512V14.3226C19.9166 15.0129 19.357 15.5726 18.6666 15.5726C17.9763 15.5726 17.4166 15.0129 17.4166 14.3226V7.99512C17.4166 7.30476 17.9763 6.74512 18.6666 6.74512Z" fill="#FBAB34"/>
</svg>
