<svg width="64" height="64" viewBox="0 0 64 64" fill="none" xmlns="http://www.w3.org/2000/svg">
<path fill-rule="evenodd" clip-rule="evenodd" d="M13.3334 6.5C9.55827 6.5 6.50003 9.55824 6.50003 13.3333V38.7784C4.94032 39.3808 3.83337 40.895 3.83337 42.6667V45.3333C3.83337 47.6338 5.69961 49.5 8.00004 49.5H38.5V53.3333C38.5 55.6338 40.3663 57.5 42.6667 57.5H56C58.3005 57.5 60.1667 55.6338 60.1667 53.3333V30.6667C60.1667 28.3662 58.3005 26.5 56 26.5H54.8334V13.3333C54.8334 9.55824 51.7751 6.5 48 6.5H13.3334ZM57.1667 46.5V30.6667C57.1667 30.0231 56.6436 29.5 56 29.5H42.6667C42.0231 29.5 41.5 30.0231 41.5 30.6667V39.9941L41.5 40L41.5 40.0059V46.5H57.1667ZM41.5 49.5H57.1667V53.3333C57.1667 53.9769 56.6436 54.5 56 54.5H42.6667C42.0231 54.5 41.5 53.9769 41.5 53.3333V49.5ZM51.8334 13.3333V26.5H42.6667C40.3663 26.5 38.5 28.3662 38.5 30.6667V38.5H9.50003V13.3333C9.50003 11.2151 11.2151 9.5 13.3334 9.5H48C50.1183 9.5 51.8334 11.2151 51.8334 13.3333ZM8.00004 41.5H38.5V46.5H8.00004C7.35647 46.5 6.83337 45.9769 6.83337 45.3333V42.6667C6.83337 42.0231 7.35647 41.5 8.00004 41.5Z" fill="#FBAB34"/>
</svg>
