<svg width="64" height="64" viewBox="0 0 64 64" fill="none" xmlns="http://www.w3.org/2000/svg">
<path fill-rule="evenodd" clip-rule="evenodd" d="M19.1403 11.7124C19.6262 12.3834 19.476 13.3212 18.805 13.807C17.3621 14.8516 16.0505 16.0539 14.9008 17.4006C14.3629 18.0306 13.4161 18.1054 12.7861 17.5675C12.156 17.0296 12.0813 16.0828 12.6192 15.4527C13.9282 13.9194 15.4165 12.5564 17.0457 11.377C17.7167 10.8912 18.6545 11.0413 19.1403 11.7124Z" fill="#FBAB34"/>
<path fill-rule="evenodd" clip-rule="evenodd" d="M46.5795 51.1171C47.0406 51.8054 46.8565 52.7371 46.1682 53.1982C42.1163 55.9127 37.2433 57.5 32 57.5C29.4157 57.5 26.9248 57.1088 24.5771 56.3952C23.7845 56.1542 23.3372 55.3164 23.5782 54.5237C23.8191 53.7311 24.657 53.2839 25.4496 53.5248C27.5232 54.1552 29.7203 54.5 32 54.5C36.6287 54.5 40.9237 53.1006 44.4985 50.7058C45.1867 50.2447 46.1184 50.4289 46.5795 51.1171Z" fill="#FBAB34"/>
<path fill-rule="evenodd" clip-rule="evenodd" d="M8.89361 38.5862C9.67446 38.3094 10.5318 38.7181 10.8085 39.4989C12.2119 43.4589 14.6727 46.9139 17.8734 49.4999C18.5177 50.0205 18.6181 50.965 18.0974 51.6094C17.5768 52.2537 16.6324 52.3541 15.988 51.8334C12.3566 48.8995 9.56946 44.9838 7.98083 40.5011C7.7041 39.7202 8.11277 38.8629 8.89361 38.5862Z" fill="#FBAB34"/>
<path fill-rule="evenodd" clip-rule="evenodd" d="M9.89555 22.5861C10.6764 22.8627 11.0852 23.72 10.8086 24.5009C9.97348 26.8582 9.5 29.3718 9.5 32C9.5 32.8284 8.82843 33.5 8 33.5C7.17157 33.5 6.5 32.8284 6.5 32C6.5 29.0069 7.03986 26.1551 7.98077 23.4991C8.25739 22.7182 9.11467 22.3095 9.89555 22.5861Z" fill="#FBAB34"/>
<path fill-rule="evenodd" clip-rule="evenodd" d="M32 9.5C29.7203 9.5 27.5232 9.84484 25.4496 10.4752C24.657 10.7161 23.8191 10.2689 23.5782 9.47626C23.3372 8.68364 23.7845 7.84578 24.5771 7.60484C26.9248 6.89116 29.4157 6.5 32 6.5C46.0844 6.5 57.5 17.9156 57.5 32C57.5 37.2619 55.8733 42.1219 53.1454 46.1714C52.6825 46.8585 51.7503 47.0402 51.0633 46.5774C50.3762 46.1145 50.1944 45.1823 50.6573 44.4953C53.0707 40.9127 54.5 36.6314 54.5 32C54.5 19.5724 44.4276 9.5 32 9.5Z" fill="#FBAB34"/>
<path fill-rule="evenodd" clip-rule="evenodd" d="M23.5267 31.9467C23.5267 31.1182 24.1982 30.4467 25.0267 30.4467H36.48C40.0204 30.4467 42.892 33.3182 42.892 36.8587C42.892 40.397 40.0226 43.2653 36.4827 43.2653H25.0267C24.1982 43.2653 23.5267 42.5938 23.5267 41.7653V31.9467ZM26.5267 33.4467V40.2653H36.4827C38.3668 40.2653 39.892 38.739 39.892 36.8587C39.892 34.9751 38.3636 33.4467 36.48 33.4467H26.5267Z" fill="#FBAB34"/>
<path fill-rule="evenodd" clip-rule="evenodd" d="M23.5267 21.8187C23.5267 20.9902 24.1982 20.3187 25.0267 20.3187H35.24C38.8658 20.3187 41.804 23.2569 41.804 26.8827C41.804 30.5084 38.8658 33.4467 35.24 33.4467C34.4116 33.4467 33.74 32.7751 33.74 31.9467C33.74 31.1182 34.4116 30.4467 35.24 30.4467C37.2089 30.4467 38.804 28.8516 38.804 26.8827C38.804 24.9138 37.2089 23.3187 35.24 23.3187H26.5267V31.9467C26.5267 32.7751 25.8551 33.4467 25.0267 33.4467C24.1982 33.4467 23.5267 32.7751 23.5267 31.9467V21.8187Z" fill="#FBAB34"/>
<path fill-rule="evenodd" clip-rule="evenodd" d="M31.424 17.4093C32.2524 17.4093 32.924 18.0809 32.924 18.9093V21.8107C32.924 22.6391 32.2524 23.3107 31.424 23.3107C30.5956 23.3107 29.924 22.6391 29.924 21.8107V18.9093C29.924 18.0809 30.5956 17.4093 31.424 17.4093Z" fill="#FBAB34"/>
<path fill-rule="evenodd" clip-rule="evenodd" d="M31.424 40.3187C32.2524 40.3187 32.924 40.9902 32.924 41.8187V45.0907C32.924 45.9191 32.2524 46.5907 31.424 46.5907C30.5956 46.5907 29.924 45.9191 29.924 45.0907V41.8187C29.924 40.9902 30.5956 40.3187 31.424 40.3187Z" fill="#FBAB34"/>
</svg>
