<svg width="24" height="24" viewBox="0 0 24 24" fill="none" xmlns="http://www.w3.org/2000/svg">
<path d="M21.0038 9.49936V6.49811C21.0038 5.11682 19.8841 3.99707 18.5028 3.99707H5.49738C4.11609 3.99707 2.99634 5.11682 2.99634 6.49811V9.99957" stroke="#FBAB34" stroke-width="1.5" stroke-linecap="round" stroke-linejoin="round"/>
<path d="M21.0039 14.501V17.5022C21.0039 18.8835 19.8842 20.0033 18.5029 20.0033H10.9998" stroke="#FBAB34" stroke-width="1.5" stroke-linecap="round" stroke-linejoin="round"/>
<path d="M2.9963 20.0035V14.001" stroke="#FBAB34" stroke-width="1.5" stroke-linecap="round" stroke-linejoin="round"/>
<path d="M5.05758 13.001V14.0014" stroke="#FBAB34" stroke-width="1.5" stroke-linecap="round" stroke-linejoin="round"/>
<path d="M5.05758 20.0039V21.0043" stroke="#FBAB34" stroke-width="1.5" stroke-linecap="round" stroke-linejoin="round"/>
<path fill-rule="evenodd" clip-rule="evenodd" d="M2.99634 17.002H6.4978C7.32657 17.002 7.99842 17.6738 7.99842 18.5026V18.5026C7.99842 19.3313 7.32657 20.0032 6.4978 20.0032H2.99634V17.002Z" stroke="#FBAB34" stroke-width="1.5" stroke-linecap="round" stroke-linejoin="round"/>
<path fill-rule="evenodd" clip-rule="evenodd" d="M2.99634 14.001H6.14765C6.97642 14.001 7.64828 14.6728 7.64828 15.5016V15.5016C7.64828 16.3304 6.97642 17.0022 6.14765 17.0022H2.99634V14.001Z" stroke="#FBAB34" stroke-width="1.5" stroke-linecap="round" stroke-linejoin="round"/>
<path fill-rule="evenodd" clip-rule="evenodd" d="M18.5028 9.49902H21.0038C21.5563 9.49902 22.0042 9.94693 22.0042 10.4994V13.5007C22.0042 14.0532 21.5563 14.5011 21.0038 14.5011H18.5028C17.1215 14.5011 16.0017 13.3814 16.0017 12.0001V12.0001C16.0017 10.6188 17.1215 9.49902 18.5028 9.49902V9.49902Z" stroke="#FBAB34" stroke-width="1.5" stroke-linecap="round" stroke-linejoin="round"/>
<path d="M7.99854 8.99923H13.0006" stroke="#FBAB34" stroke-width="1.5" stroke-linecap="round" stroke-linejoin="round"/>
</svg>
