<svg width="12" height="12" viewBox="0 0 12 12" fill="none" xmlns="http://www.w3.org/2000/svg">
<path fill-rule="evenodd" clip-rule="evenodd" d="M6.78947 1.78947C6.78947 1.35346 6.43601 1 6 1C5.56399 1 5.21053 1.35346 5.21053 1.78947V5.21053H1.78947C1.35346 5.21053 1 5.56399 1 6C1 6.43601 1.35346 6.78947 1.78947 6.78947H5.21053V10.2105C5.21053 10.6465 5.56399 11 6 11C6.43601 11 6.78947 10.6465 6.78947 10.2105V6.78947H10.2105C10.6465 6.78947 11 6.43601 11 6C11 5.56399 10.6465 5.21053 10.2105 5.21053H6.78947V1.78947Z" fill="white"/>
</svg>
