<svg width="16" height="16" viewBox="0 0 16 16" fill="none" xmlns="http://www.w3.org/2000/svg">
<path d="M5.33325 2.6665L4.33325 3.6665" stroke="#8C8A97" stroke-linecap="round" stroke-linejoin="round"/>
<path d="M4.33325 1.6665L5.33325 2.6665" stroke="#8C8A97" stroke-linecap="round" stroke-linejoin="round"/>
<path d="M4 2.6665C2.89533 2.6665 2 3.56184 2 4.6665" stroke="#8C8A97" stroke-linecap="round" stroke-linejoin="round"/>
<path d="M4 2.66634H5.33333" stroke="#8C8A97" stroke-linecap="round" stroke-linejoin="round"/>
<path d="M10.6667 13.333L11.6667 12.333" stroke="#8C8A97" stroke-linecap="round" stroke-linejoin="round"/>
<path d="M11.6667 14.333L10.6667 13.333" stroke="#8C8A97" stroke-linecap="round" stroke-linejoin="round"/>
<path d="M12 13.333C13.1047 13.333 14 12.4377 14 11.333" stroke="#8C8A97" stroke-linecap="round" stroke-linejoin="round"/>
<path d="M12.0001 13.3333H10.6667" stroke="#8C8A97" stroke-linecap="round" stroke-linejoin="round"/>
<path fill-rule="evenodd" clip-rule="evenodd" d="M6.33341 13.3333C8.35008 13.3333 10.0001 11.6833 10.0001 9.66667C10.0001 7.65 8.35008 6 6.33341 6C4.31675 6 2.66675 7.65 2.66675 9.66667C2.66675 10.4893 2.94475 11.2487 3.40675 11.8613C4.07675 12.7527 5.13941 13.3333 6.33341 13.3333Z" stroke="#8C8A97" stroke-linecap="round" stroke-linejoin="round"/>
<path d="M12.2594 3.74072C13.6854 5.16672 13.6854 7.50006 12.2594 8.92606C12.1454 9.04006 12.0208 9.13539 11.8948 9.22806" stroke="#8C8A97" stroke-linecap="round" stroke-linejoin="round"/>
<path d="M12.2592 3.7404C10.8332 2.3144 8.49989 2.3144 7.07389 3.7404C6.96055 3.85373 6.86322 3.97707 6.76855 4.10173" stroke="#8C8A97" stroke-linecap="round" stroke-linejoin="round"/>
</svg>
