<svg width="24" height="24" viewBox="0 0 24 24" fill="none" xmlns="http://www.w3.org/2000/svg">
<circle cx="12" cy="12" r="11.5" stroke="#FBAB34"/>
<path d="M10.8622 16.2332C10.6354 16.4599 10.2678 16.4599 10.041 16.2332L6.17007 12.3622C6.05946 12.2516 6.00281 12.1075 6.0001 11.9625C5.99997 11.9552 5.99997 11.9479 6.0001 11.9406C6.00148 11.8665 6.01674 11.7958 6.04339 11.731C6.07173 11.6619 6.11395 11.5971 6.17007 11.541L10.041 7.67007C10.2678 7.44331 10.6354 7.44331 10.8622 7.67007C11.0889 7.89682 11.0889 8.26447 10.8622 8.49122L7.98245 11.371L17.4194 11.371C17.74 11.371 18 11.6309 18 11.9516C18 12.2723 17.74 12.5323 17.4194 12.5323L7.98245 12.5323L10.8622 15.412C11.0889 15.6388 11.0889 16.0064 10.8622 16.2332Z" fill="#FBAB34"/>
</svg>
