<svg width="64" height="64" viewBox="0 0 64 64" fill="none" xmlns="http://www.w3.org/2000/svg">
<path fill-rule="evenodd" clip-rule="evenodd" d="M27.4487 6.91795C28.8954 6.66001 30.3953 6.5 31.9467 6.5C36.8396 6.5 41.4073 7.88223 45.289 10.2669C46.3125 9.45759 47.6065 8.97461 49.0133 8.97461C52.3242 8.97461 55.0173 11.6566 55.0173 14.9706C55.0173 18.2819 52.3295 20.9613 49.016 20.9613L49.0144 20.9613C45.7062 20.9577 43.012 18.2807 43.012 14.9653C43.012 14.1523 43.174 13.3774 43.4675 12.6709C40.0965 10.6597 36.1603 9.5 31.9467 9.5C30.602 9.5 29.2806 9.63865 27.9753 9.87138C27.1597 10.0168 26.3807 9.47352 26.2353 8.65796C26.0899 7.84239 26.6331 7.06337 27.4487 6.91795ZM46.5309 13.2833C46.2032 13.7629 46.012 14.3422 46.012 14.9653C46.012 16.615 47.3548 17.9592 49.017 17.9613C50.679 17.9607 52.0173 16.6189 52.0173 14.9706C52.0173 13.3193 50.6731 11.9746 49.0133 11.9746C48.1339 11.9746 47.345 12.3501 46.797 12.948C46.779 12.9787 46.7597 13.0091 46.7393 13.039C46.6774 13.1294 46.6074 13.2109 46.5309 13.2833Z" fill="#FBAB34"/>
<path fill-rule="evenodd" clip-rule="evenodd" d="M33.0596 22.9568C32.4741 22.3725 31.5259 22.3725 30.9404 22.9568L22.9404 30.9408C22.6584 31.2223 22.5 31.6043 22.5 32.0027C22.5 32.4011 22.6585 32.7831 22.9406 33.0645L30.9406 41.0458C31.5261 41.6299 32.4739 41.6299 33.0594 41.0458L41.0594 33.0645C41.3415 32.7831 41.5 32.4011 41.5 32.0027C41.5 31.6043 41.3416 31.2223 41.0596 30.9408L33.0596 22.9568ZM32 37.865L26.1236 32.0024L32 26.1378L37.8764 32.0024L32 37.865Z" fill="#FBAB34"/>
<path fill-rule="evenodd" clip-rule="evenodd" d="M57.5 32.0026C57.5 36.885 56.1159 41.4421 53.7279 45.3153C55.5977 47.6681 55.4423 51.0963 53.2617 53.2703C52.9271 53.6039 52.5629 53.8899 52.1775 54.1284C51.2594 54.6976 50.1766 55.0267 49.0176 55.0279C46.2854 55.0309 43.9798 53.2108 43.2531 50.7162C42.658 48.683 43.1646 46.3972 44.7729 44.7938C46.1561 43.4148 48.0445 42.849 49.8422 43.0965C50.3596 43.167 50.856 43.3034 51.3226 43.4969C53.3383 40.1332 54.5 36.2064 54.5 32.0026C54.5 30.6607 54.3614 29.3422 54.1287 28.0397C53.983 27.2242 54.526 26.445 55.3416 26.2993C56.1571 26.1536 56.9363 26.6966 57.082 27.5121C57.34 28.9563 57.5 30.4537 57.5 32.0026ZM50.9506 46.7643C50.8626 46.7038 50.783 46.6355 50.7122 46.5611C50.343 46.3094 49.9302 46.1489 49.5053 46.0796C49.3475 46.0542 49.1855 46.0411 49.0203 46.0413L49.0187 46.0413C47.3568 46.0413 46.0147 47.3853 46.0147 49.0373C46.0147 49.3644 46.0672 49.6793 46.1643 49.9739C46.3067 50.4021 46.5489 50.8047 46.891 51.1458C47.9719 52.2234 49.6699 52.3093 50.8493 51.4037C51.562 50.8549 52.02 49.9951 52.02 49.0319C52.02 48.3494 51.7915 47.7202 51.4062 47.2168C51.3264 47.113 51.2389 47.0133 51.1436 46.9183C51.1111 46.8859 51.078 46.8544 51.0444 46.8238C51.0127 46.8052 50.9814 46.7854 50.9506 46.7643Z" fill="#FBAB34"/>
<path fill-rule="evenodd" clip-rule="evenodd" d="M10.2712 18.6888C7.88366 22.5622 6.5 27.121 6.5 32.0028C6.5 33.5516 6.66005 35.049 6.91804 36.4932C7.06373 37.3087 7.84294 37.8517 8.65845 37.706C9.47397 37.5604 10.017 36.7811 9.87129 35.9656C9.63861 34.6631 9.5 33.3446 9.5 32.0028C9.5 27.7996 10.6613 23.8714 12.6762 20.5079C13.3861 20.8025 14.165 20.9647 14.9821 20.964C18.2959 20.9635 20.9853 18.2811 20.9853 14.968C20.9853 11.6551 18.2985 8.97418 14.9832 8.9773C11.6695 8.97773 8.98001 11.6602 8.98001 14.9733C8.98001 16.3774 9.46265 17.668 10.2712 18.6888ZM13.0494 17.2384C13.1415 17.3017 13.2243 17.3734 13.2975 17.4518C13.7768 17.7757 14.3556 17.9646 14.9797 17.964H14.9813C16.6432 17.964 17.9853 16.6199 17.9853 14.968C17.9853 13.3157 16.6459 11.9755 14.9856 11.9773L14.984 11.9773C13.3221 11.9773 11.98 13.3214 11.98 14.9733C11.98 15.8427 12.3509 16.6258 12.9443 17.1723C12.9799 17.1927 13.0149 17.2147 13.0494 17.2384Z" fill="#FBAB34"/>
<path fill-rule="evenodd" clip-rule="evenodd" d="M20.5324 51.329C20.826 50.6225 20.988 49.8476 20.988 49.0346C20.988 45.7191 18.2937 43.0421 14.9856 43.0386H14.984C11.6705 43.0386 8.98267 45.7179 8.98267 49.0292C8.98267 52.3432 11.6758 55.0252 14.9867 55.0252C16.3934 55.0252 17.6874 54.5423 18.7108 53.7331C22.5926 56.1177 27.1604 57.5 32.0533 57.5C33.6047 57.5 35.1046 57.34 36.5513 57.0821C37.3669 56.9366 37.9101 56.1576 37.7647 55.342C37.6193 54.5265 36.8403 53.9832 36.0247 54.1286C34.7194 54.3614 33.398 54.5 32.0533 54.5C27.8397 54.5 23.9034 53.3403 20.5324 51.329ZM17.4688 50.717C17.3924 50.7893 17.3225 50.8707 17.2607 50.961C17.2403 50.9908 17.2212 51.021 17.2033 51.0516C16.6552 51.6496 15.8663 52.0252 14.9867 52.0252C13.3269 52.0252 11.9827 50.6806 11.9827 49.0292C11.9827 47.3808 13.3211 46.039 14.9832 46.0386C16.6453 46.0408 17.988 47.3849 17.988 49.0346C17.988 49.6579 17.7966 50.2374 17.4688 50.717Z" fill="#FBAB34"/>
</svg>
