<svg width="12" height="12" viewBox="0 0 12 12" fill="none" xmlns="http://www.w3.org/2000/svg">
<path d="M7.13781 1.67007C7.36457 1.44331 7.73221 1.44331 7.95897 1.67007L11.8299 5.54104C11.886 5.59715 11.9283 5.66189 11.9566 5.73099C11.9835 5.79646 11.9988 5.86794 11.9999 5.94285C12 5.94903 12 5.9552 11.9999 5.96137C11.9987 6.03624 11.9833 6.10765 11.9563 6.17306C11.9423 6.20696 11.925 6.23981 11.9043 6.2711C11.8831 6.3033 11.8583 6.33385 11.8299 6.36219L7.95897 10.2332C7.73221 10.4599 7.36457 10.4599 7.13781 10.2332C6.91105 10.0064 6.91105 9.63876 7.13781 9.412L10.0176 6.53226L0.580645 6.53226C0.259964 6.53226 -2.80349e-08 6.27229 0 5.95161C2.80349e-08 5.63093 0.259964 5.37097 0.580646 5.37097L10.0176 5.37097L7.13781 2.49122C6.91105 2.26447 6.91105 1.89682 7.13781 1.67007Z" fill="white"/>
</svg>
