<?xml version="1.0" standalone="no"?>
<!DOCTYPE svg PUBLIC "-//W3C//DTD SVG 20010904//EN"
 "http://www.w3.org/TR/2001/REC-SVG-20010904/DTD/svg10.dtd">
<svg version="1.0" xmlns="http://www.w3.org/2000/svg"
 width="445.000000pt" height="445.000000pt" viewBox="0 0 445.000000 445.000000"
 preserveAspectRatio="xMidYMid meet">
<metadata>
Created by potrace 1.14, written by Peter Selinger 2001-2017
</metadata>
<g transform="translate(0.000000,445.000000) scale(0.100000,-0.100000)"
fill="#000000" stroke="none">
<path d="M1956 4433 c-394 -49 -765 -201 -1089 -445 -113 -85 -327 -302 -419
-425 -178 -238 -301 -492 -377 -783 -31 -117 -34 -136 -56 -295 -12 -88 -13
-441 -1 -515 3 -19 8 -56 11 -81 5 -38 38 -190 59 -270 42 -162 133 -372 227
-527 22 -35 39 -68 39 -72 0 -5 3 -10 8 -12 4 -1 27 -32 51 -68 96 -140 294
-349 436 -459 44 -34 88 -69 97 -76 33 -27 214 -133 303 -177 129 -65 372
-152 479 -172 11 -2 57 -11 101 -19 129 -25 219 -32 405 -32 219 0 362 17 551
65 207 53 474 170 654 288 474 309 828 809 953 1347 45 194 56 290 57 505 0
213 -6 290 -39 455 -50 253 -172 553 -314 770 -131 201 -334 421 -512 553 -47
35 -92 69 -100 76 -40 31 -202 123 -307 173 -192 91 -452 167 -678 198 -97 13
-428 12 -539 -2z m474 -336 c340 -40 661 -168 925 -366 167 -126 323 -292 445
-475 56 -84 170 -304 170 -328 0 -8 4 -18 9 -23 7 -8 56 -154 67 -200 46 -195
63 -344 59 -520 -1 -77 -5 -156 -9 -175 -3 -19 -8 -52 -11 -73 -19 -141 -83
-354 -149 -500 -31 -66 -142 -261 -167 -291 -5 -6 -31 -41 -59 -77 -151 -204
-413 -416 -666 -539 -105 -51 -314 -125 -381 -136 -21 -3 -41 -8 -44 -9 -3 -2
-28 -7 -55 -11 -27 -3 -52 -8 -55 -10 -28 -17 -357 -24 -484 -11 -636 67
-1196 457 -1485 1034 -134 269 -194 528 -194 843 -1 297 62 569 193 830 103
206 194 332 360 497 247 248 542 414 881 496 105 26 142 32 268 46 66 7 314 6
382 -2z"/>
<path d="M2429 3416 c-2 -2 -22 -7 -44 -10 -50 -8 -145 -38 -208 -65 -144 -62
-319 -205 -402 -329 -38 -57 -42 -59 -100 -71 -79 -17 -204 -65 -280 -109
-156 -90 -295 -236 -377 -397 -28 -54 -80 -195 -73 -195 2 0 1 -10 -4 -23 -27
-70 -34 -266 -14 -381 71 -413 401 -738 808 -797 70 -10 231 -13 271 -5 12 2
39 7 60 10 63 10 194 57 264 94 142 76 290 209 356 321 10 18 30 34 44 37 224
49 379 131 521 273 118 119 185 228 238 389 96 288 42 622 -141 870 -51 69
-158 176 -213 211 -22 14 -42 29 -45 33 -3 4 -49 28 -102 53 -146 69 -226 87
-404 92 -83 2 -152 1 -155 -1z m281 -352 c212 -49 393 -217 456 -423 90 -298
-45 -612 -324 -751 -143 -71 -325 -82 -478 -30 -151 52 -291 176 -362 320 -60
123 -77 290 -42 424 84 331 421 538 750 460z m-1112 -586 c-1 -213 52 -395
167 -568 97 -146 264 -283 430 -351 44 -18 82 -34 84 -36 17 -13 -120 -95
-208 -124 -96 -33 -277 -33 -376 -1 -171 57 -296 166 -375 327 -135 276 -48
608 205 783 33 23 63 42 67 42 4 0 6 -33 6 -72z"/>
</g>
</svg>
